<svg xmlns="http://www.w3.org/2000/svg" xmlns:xlink="http://www.w3.org/1999/xlink" width="11px" height="16px" viewBox="0 0 11 15" version="1.1">
<path style=" stroke:none;fill-rule:nonzero;fill:rgb(5.098039%,4.705882%,13.333334%);fill-opacity:1;" d="M 9.84375 3.488281 L 9.808594 3.476562 C 9.816406 3.484375 9.832031 3.488281 9.84375 3.488281 Z M 9.84375 3.488281 "/>
<path style=" stroke:none;fill-rule:nonzero;fill:rgb(5.098039%,4.705882%,13.333334%);fill-opacity:1;" d="M 9.992188 4.558594 L 10.011719 4.550781 L 10.019531 4.546875 L 10.023438 4.539062 C 10.011719 4.542969 10.003906 4.550781 9.992188 4.558594 Z M 9.992188 4.558594 "/>
<path style=" stroke:none;fill-rule:nonzero;fill:rgb(5.098039%,4.705882%,13.333334%);fill-opacity:1;" d="M 9.875 3.511719 L 9.859375 3.496094 L 9.847656 3.492188 C 9.851562 3.5 9.863281 3.507812 9.875 3.511719 Z M 9.875 3.511719 "/>
<path style=" stroke:none;fill-rule:nonzero;fill:rgb(5.098039%,4.705882%,13.333334%);fill-opacity:1;" d="M 5.351562 13.910156 C 5.335938 13.917969 5.324219 13.925781 5.3125 13.9375 L 5.324219 13.929688 C 5.332031 13.925781 5.34375 13.917969 5.351562 13.910156 Z M 5.351562 13.910156 "/>
<path style=" stroke:none;fill-rule:nonzero;fill:rgb(5.098039%,4.705882%,13.333334%);fill-opacity:1;" d="M 7.980469 13.425781 C 7.980469 13.410156 7.96875 13.410156 7.972656 13.464844 C 7.972656 13.460938 7.972656 13.457031 7.976562 13.453125 C 7.976562 13.441406 7.976562 13.433594 7.980469 13.425781 Z M 7.980469 13.425781 "/>
<path style=" stroke:none;fill-rule:nonzero;fill:rgb(5.098039%,4.705882%,13.333334%);fill-opacity:1;" d="M 7.707031 13.910156 C 7.691406 13.917969 7.679688 13.925781 7.667969 13.9375 L 7.679688 13.929688 C 7.6875 13.925781 7.699219 13.917969 7.707031 13.910156 Z M 7.707031 13.910156 "/>
<path style=" stroke:none;fill-rule:nonzero;fill:rgb(5.098039%,4.705882%,13.333334%);fill-opacity:1;" d="M 3.5 14.027344 C 3.488281 14.019531 3.476562 14.011719 3.460938 14.011719 C 3.472656 14.015625 3.484375 14.019531 3.492188 14.023438 Z M 3.5 14.027344 "/>
<path style=" stroke:none;fill-rule:nonzero;fill:rgb(5.098039%,4.705882%,13.333334%);fill-opacity:1;" d="M 3.085938 13.652344 C 3.082031 13.636719 3.078125 13.621094 3.070312 13.605469 C 3.074219 13.621094 3.078125 13.636719 3.082031 13.652344 Z M 3.085938 13.652344 "/>
<path style=" stroke:none;fill-rule:nonzero;fill:rgb(100%,86.666667%,0%);fill-opacity:1;" d="M 5.882812 6.929688 C 5.308594 7.160156 4.660156 7.421875 3.820312 7.421875 C 3.46875 7.421875 3.117188 7.375 2.777344 7.285156 L 3.359375 12.914062 C 3.382812 13.148438 3.496094 13.367188 3.679688 13.527344 C 3.863281 13.6875 4.105469 13.777344 4.355469 13.777344 C 4.355469 13.777344 5.179688 13.816406 5.453125 13.816406 C 5.75 13.816406 6.640625 13.777344 6.640625 13.777344 C 6.890625 13.777344 7.128906 13.6875 7.316406 13.527344 C 7.5 13.367188 7.613281 13.148438 7.632812 12.914062 L 8.253906 6.695312 C 7.976562 6.605469 7.695312 6.546875 7.378906 6.546875 C 6.832031 6.546875 6.390625 6.722656 5.882812 6.929688 Z M 5.882812 6.929688 "/>
<path style=" stroke:none;fill-rule:nonzero;fill:rgb(5.098039%,4.705882%,13.333334%);fill-opacity:1;" d="M 0.980469 4.527344 L 0.988281 4.539062 L 0.996094 4.539062 C 0.992188 4.535156 0.984375 4.53125 0.980469 4.527344 Z M 0.980469 4.527344 "/>
<path style=" stroke:none;fill-rule:nonzero;fill:rgb(5.098039%,4.705882%,13.333334%);fill-opacity:1;" d="M 10.945312 4.007812 L 10.855469 3.59375 C 10.777344 3.21875 10.601562 2.867188 10.195312 2.730469 C 10.0625 2.6875 9.914062 2.667969 9.816406 2.582031 C 9.714844 2.492188 9.6875 2.351562 9.664062 2.222656 C 9.621094 1.988281 9.578125 1.75 9.535156 1.515625 C 9.496094 1.3125 9.46875 1.082031 9.367188 0.898438 C 9.242188 0.648438 8.972656 0.503906 8.707031 0.40625 C 8.574219 0.359375 8.433594 0.316406 8.292969 0.285156 C 7.632812 0.121094 6.933594 0.0585938 6.253906 0.0234375 C 5.4375 -0.0195312 4.617188 -0.00390625 3.800781 0.0625 C 3.191406 0.113281 2.554688 0.179688 1.976562 0.375 C 1.765625 0.449219 1.546875 0.535156 1.386719 0.6875 C 1.191406 0.878906 1.128906 1.167969 1.269531 1.40625 C 1.371094 1.570312 1.546875 1.691406 1.730469 1.769531 C 1.96875 1.867188 2.21875 1.945312 2.472656 1.996094 C 3.1875 2.144531 3.925781 2.203125 4.652344 2.226562 C 5.460938 2.257812 6.269531 2.234375 7.074219 2.152344 C 7.273438 2.132812 7.46875 2.109375 7.667969 2.078125 C 7.902344 2.046875 8.050781 1.757812 7.984375 1.558594 C 7.898438 1.320312 7.679688 1.226562 7.429688 1.261719 C 7.394531 1.265625 7.355469 1.273438 7.320312 1.277344 L 7.292969 1.28125 C 7.207031 1.292969 7.125 1.300781 7.039062 1.308594 C 6.863281 1.328125 6.6875 1.34375 6.511719 1.351562 C 6.121094 1.378906 5.726562 1.390625 5.332031 1.390625 C 4.941406 1.390625 4.554688 1.382812 4.167969 1.355469 C 3.992188 1.347656 3.816406 1.332031 3.640625 1.316406 C 3.558594 1.308594 3.480469 1.300781 3.402344 1.289062 L 3.324219 1.28125 L 3.308594 1.277344 L 3.230469 1.269531 C 3.070312 1.246094 2.910156 1.21875 2.75 1.1875 C 2.734375 1.183594 2.71875 1.175781 2.710938 1.164062 C 2.699219 1.152344 2.695312 1.136719 2.695312 1.121094 C 2.695312 1.105469 2.699219 1.089844 2.710938 1.078125 C 2.71875 1.066406 2.734375 1.058594 2.75 1.054688 L 2.753906 1.054688 C 2.890625 1.027344 3.03125 1.003906 3.167969 0.984375 C 3.214844 0.976562 3.261719 0.96875 3.308594 0.960938 C 3.398438 0.957031 3.484375 0.941406 3.570312 0.933594 C 4.324219 0.859375 5.085938 0.832031 5.84375 0.855469 C 6.210938 0.867188 6.578125 0.886719 6.945312 0.921875 C 7.023438 0.929688 7.101562 0.9375 7.179688 0.949219 C 7.210938 0.949219 7.242188 0.957031 7.269531 0.957031 L 7.332031 0.96875 C 7.507812 0.992188 7.683594 1.023438 7.859375 1.058594 C 8.121094 1.109375 8.453125 1.128906 8.570312 1.398438 C 8.605469 1.480469 8.625 1.578125 8.644531 1.664062 L 8.667969 1.78125 C 8.671875 1.78125 8.671875 1.785156 8.671875 1.785156 C 8.734375 2.054688 8.792969 2.324219 8.855469 2.59375 C 8.859375 2.613281 8.859375 2.632812 8.855469 2.652344 C 8.851562 2.671875 8.84375 2.691406 8.832031 2.707031 C 8.816406 2.726562 8.800781 2.738281 8.785156 2.75 C 8.765625 2.761719 8.746094 2.769531 8.722656 2.769531 L 8.683594 2.777344 L 8.648438 2.78125 C 8.53125 2.792969 8.414062 2.808594 8.292969 2.820312 C 8.0625 2.84375 7.832031 2.867188 7.597656 2.886719 C 7.136719 2.921875 6.675781 2.945312 6.210938 2.957031 C 5.972656 2.960938 5.738281 2.964844 5.503906 2.964844 C 4.5625 2.964844 3.625 2.914062 2.691406 2.808594 C 2.589844 2.800781 2.488281 2.785156 2.386719 2.773438 C 2.464844 2.785156 2.328125 2.765625 2.300781 2.765625 C 2.238281 2.753906 2.175781 2.746094 2.109375 2.738281 C 1.894531 2.707031 1.679688 2.667969 1.464844 2.636719 C 1.203125 2.597656 0.957031 2.617188 0.71875 2.738281 C 0.527344 2.835938 0.371094 2.988281 0.273438 3.175781 C 0.171875 3.371094 0.140625 3.589844 0.09375 3.800781 C 0.0507812 4.011719 -0.0195312 4.242188 0.0078125 4.460938 C 0.0625 4.929688 0.414062 5.3125 0.914062 5.398438 C 1.386719 5.480469 1.863281 5.546875 2.339844 5.601562 C 4.210938 5.816406 6.101562 5.84375 7.976562 5.679688 C 8.132812 5.664062 8.285156 5.648438 8.4375 5.632812 C 8.484375 5.628906 8.53125 5.632812 8.578125 5.648438 C 8.621094 5.664062 8.664062 5.6875 8.699219 5.71875 C 8.730469 5.75 8.757812 5.789062 8.773438 5.832031 C 8.789062 5.875 8.796875 5.921875 8.789062 5.964844 L 8.742188 6.402344 C 8.648438 7.28125 8.550781 8.160156 8.457031 9.039062 C 8.355469 9.964844 8.253906 10.886719 8.152344 11.8125 C 8.125 12.074219 8.097656 12.332031 8.070312 12.59375 C 8.042969 12.847656 8.039062 13.113281 7.984375 13.367188 C 7.902344 13.765625 7.617188 14.007812 7.203125 14.097656 C 6.820312 14.179688 6.429688 14.222656 6.035156 14.226562 C 5.601562 14.226562 5.167969 14.210938 4.734375 14.210938 C 4.269531 14.214844 3.703125 14.175781 3.34375 13.847656 C 3.03125 13.5625 2.984375 13.117188 2.945312 12.730469 C 2.886719 12.21875 2.828125 11.703125 2.773438 11.191406 L 2.457031 8.347656 L 2.253906 6.503906 C 2.25 6.472656 2.25 6.441406 2.246094 6.414062 C 2.222656 6.191406 2.054688 5.976562 1.796875 5.988281 C 1.574219 5.996094 1.320312 6.175781 1.347656 6.414062 L 1.496094 7.777344 L 1.808594 10.601562 C 1.898438 11.40625 1.988281 12.207031 2.074219 13.011719 C 2.09375 13.164062 2.109375 13.320312 2.125 13.472656 C 2.222656 14.3125 2.90625 14.765625 3.75 14.894531 C 4.242188 14.96875 4.746094 14.984375 5.246094 14.992188 C 5.886719 15 6.53125 15.023438 7.164062 14.914062 C 8.097656 14.753906 8.796875 14.164062 8.898438 13.253906 C 8.925781 12.992188 8.953125 12.726562 8.984375 12.464844 C 9.078125 11.59375 9.171875 10.722656 9.265625 9.851562 L 9.578125 7.007812 L 9.71875 5.703125 C 9.726562 5.636719 9.753906 5.578125 9.800781 5.53125 C 9.847656 5.480469 9.910156 5.449219 9.976562 5.4375 C 10.242188 5.386719 10.5 5.304688 10.6875 5.113281 C 10.992188 4.808594 11.050781 4.410156 10.945312 4.007812 Z M 0.902344 4.289062 C 0.90625 4.289062 0.898438 4.320312 0.894531 4.335938 C 0.894531 4.3125 0.894531 4.292969 0.902344 4.289062 Z M 0.925781 4.480469 C 0.929688 4.476562 0.9375 4.484375 0.941406 4.496094 C 0.933594 4.488281 0.925781 4.480469 0.925781 4.480469 Z M 0.953125 4.511719 C 0.960938 4.527344 0.964844 4.535156 0.953125 4.511719 Z M 1.003906 4.550781 C 1.003906 4.550781 1.007812 4.554688 1.007812 4.554688 C 1.007812 4.554688 1.003906 4.550781 1.003906 4.550781 Z M 9.964844 4.492188 C 9.867188 4.578125 9.722656 4.617188 9.582031 4.636719 C 7.980469 4.863281 6.355469 4.976562 4.734375 4.925781 C 3.578125 4.886719 2.429688 4.765625 1.285156 4.613281 C 1.171875 4.597656 1.050781 4.578125 0.972656 4.5 C 0.828125 4.355469 0.898438 4.058594 0.9375 3.878906 C 0.96875 3.714844 1.035156 3.5 1.242188 3.476562 C 1.5625 3.441406 1.9375 3.566406 2.253906 3.613281 C 2.636719 3.667969 3.019531 3.710938 3.40625 3.746094 C 5.050781 3.886719 6.722656 3.863281 8.359375 3.65625 C 8.660156 3.621094 8.957031 3.578125 9.253906 3.527344 C 9.515625 3.480469 9.808594 3.398438 9.96875 3.65625 C 10.078125 3.832031 10.09375 4.066406 10.078125 4.265625 C 10.070312 4.351562 10.03125 4.433594 9.964844 4.492188 Z M 9.964844 4.492188 "/>
</svg>
